<svg width="335" height="64" viewBox="0 0 335 64" fill="none" xmlns="http://www.w3.org/2000/svg">
<g filter="url(#filter0_i_92_159)">
<path d="M0 15C0 6.71573 6.71573 0 15 0H320C328.284 0 335 6.71573 335 15V49C335 57.2843 328.284 64 320 64H15C6.71574 64 0 57.2843 0 49V15Z" fill="#FF5F05"/>
<path d="M0 15C0 6.71573 6.71573 0 15 0H320C328.284 0 335 6.71573 335 15V49C335 57.2843 328.284 64 320 64H15C6.71574 64 0 57.2843 0 49V15Z" fill="url(#paint0_radial_92_159)" fill-opacity="0.3"/>
</g>
<path d="M1 15C1 7.26801 7.26801 1 15 1H320C327.732 1 334 7.26801 334 15V49C334 56.732 327.732 63 320 63H15C7.26802 63 1 56.732 1 49V15Z" stroke="white" stroke-opacity="0.2" stroke-width="2"/>
<path d="M1 15C1 7.26801 7.26801 1 15 1H320C327.732 1 334 7.26801 334 15V49C334 56.732 327.732 63 320 63H15C7.26802 63 1 56.732 1 49V15Z" stroke="url(#paint1_radial_92_159)" stroke-opacity="0.53" stroke-width="2"/>
<path d="M99.5694 36.16C98.7054 36.16 97.8681 36.0373 97.0574 35.792C96.2574 35.5467 95.6228 35.2213 95.1534 34.816L95.8734 33.2C96.3321 33.5627 96.8921 33.8613 97.5534 34.096C98.2254 34.32 98.8974 34.432 99.5694 34.432C100.401 34.432 101.02 34.2987 101.425 34.032C101.841 33.7653 102.049 33.4133 102.049 32.976C102.049 32.656 101.932 32.3947 101.697 32.192C101.473 31.9787 101.185 31.8133 100.833 31.696C100.481 31.5787 100.001 31.4453 99.3934 31.296C98.5401 31.0933 97.8468 30.8907 97.3134 30.688C96.7908 30.4853 96.3374 30.1707 95.9534 29.744C95.5801 29.3067 95.3934 28.72 95.3934 27.984C95.3934 27.3653 95.5588 26.8053 95.8894 26.304C96.2308 25.792 96.7374 25.3867 97.4094 25.088C98.0921 24.7893 98.9241 24.64 99.9054 24.64C100.588 24.64 101.26 24.7253 101.921 24.896C102.583 25.0667 103.153 25.312 103.633 25.632L102.977 27.248C102.487 26.96 101.975 26.7413 101.441 26.592C100.908 26.4427 100.391 26.368 99.8894 26.368C99.0681 26.368 98.4548 26.5067 98.0494 26.784C97.6548 27.0613 97.4574 27.4293 97.4574 27.888C97.4574 28.208 97.5694 28.4693 97.7934 28.672C98.0281 28.8747 98.3214 29.0347 98.6734 29.152C99.0254 29.2693 99.5054 29.4027 100.113 29.552C100.945 29.744 101.628 29.9467 102.161 30.16C102.695 30.3627 103.148 30.6773 103.521 31.104C103.905 31.5307 104.097 32.1067 104.097 32.832C104.097 33.4507 103.927 34.0107 103.585 34.512C103.255 35.0133 102.748 35.4133 102.065 35.712C101.383 36.0107 100.551 36.16 99.5694 36.16ZM107.44 24.8H109.52V36H107.44V24.8ZM121.477 30.272H123.445V34.736C122.869 35.1947 122.197 35.5467 121.429 35.792C120.661 36.0373 119.872 36.16 119.061 36.16C117.92 36.16 116.891 35.9147 115.973 35.424C115.056 34.9227 114.336 34.2347 113.813 33.36C113.291 32.4853 113.029 31.4987 113.029 30.4C113.029 29.3013 113.291 28.3147 113.813 27.44C114.336 26.5653 115.056 25.8827 115.973 25.392C116.901 24.8907 117.941 24.64 119.093 24.64C120.032 24.64 120.885 24.7947 121.653 25.104C122.421 25.4133 123.067 25.8667 123.589 26.464L122.277 27.744C121.424 26.8907 120.395 26.464 119.189 26.464C118.4 26.464 117.696 26.6293 117.077 26.96C116.469 27.2907 115.989 27.7547 115.637 28.352C115.296 28.9493 115.125 29.632 115.125 30.4C115.125 31.1467 115.296 31.8187 115.637 32.416C115.989 33.0133 116.469 33.4827 117.077 33.824C117.696 34.1653 118.395 34.336 119.173 34.336C120.048 34.336 120.816 34.144 121.477 33.76V30.272ZM137.421 24.8V36H135.709L129.533 28.416V36H127.469V24.8H129.181L135.357 32.384V24.8H137.421ZM152.22 36.16C150.673 36.16 149.468 35.728 148.604 34.864C147.74 33.9893 147.308 32.7413 147.308 31.12V24.8H149.388V31.04C149.388 33.2373 150.337 34.336 152.236 34.336C154.124 34.336 155.068 33.2373 155.068 31.04V24.8H157.116V31.12C157.116 32.7413 156.684 33.9893 155.82 34.864C154.966 35.728 153.766 36.16 152.22 36.16ZM165.917 24.8C166.887 24.8 167.73 24.96 168.445 25.28C169.17 25.6 169.725 26.0587 170.109 26.656C170.493 27.2533 170.685 27.9627 170.685 28.784C170.685 29.5947 170.493 30.304 170.109 30.912C169.725 31.5093 169.17 31.968 168.445 32.288C167.73 32.608 166.887 32.768 165.917 32.768H163.389V36H161.309V24.8H165.917ZM165.821 31.008C166.727 31.008 167.415 30.816 167.885 30.432C168.354 30.048 168.589 29.4987 168.589 28.784C168.589 28.0693 168.354 27.52 167.885 27.136C167.415 26.752 166.727 26.56 165.821 26.56H163.389V31.008H165.821ZM182.172 26.56H178.46V24.8H187.964V26.56H184.252V36H182.172V26.56ZM195.881 36.16C194.739 36.16 193.71 35.9147 192.793 35.424C191.875 34.9227 191.155 34.2347 190.633 33.36C190.11 32.4747 189.849 31.488 189.849 30.4C189.849 29.312 190.11 28.3307 190.633 27.456C191.155 26.5707 191.875 25.8827 192.793 25.392C193.71 24.8907 194.739 24.64 195.881 24.64C197.022 24.64 198.051 24.8907 198.969 25.392C199.886 25.8827 200.606 26.5653 201.129 27.44C201.651 28.3147 201.913 29.3013 201.913 30.4C201.913 31.4987 201.651 32.4853 201.129 33.36C200.606 34.2347 199.886 34.9227 198.969 35.424C198.051 35.9147 197.022 36.16 195.881 36.16ZM195.881 34.336C196.627 34.336 197.299 34.1707 197.897 33.84C198.494 33.4987 198.963 33.0293 199.305 32.432C199.646 31.824 199.817 31.1467 199.817 30.4C199.817 29.6533 199.646 28.9813 199.305 28.384C198.963 27.776 198.494 27.3067 197.897 26.976C197.299 26.6347 196.627 26.464 195.881 26.464C195.134 26.464 194.462 26.6347 193.865 26.976C193.267 27.3067 192.798 27.776 192.457 28.384C192.115 28.9813 191.945 29.6533 191.945 30.4C191.945 31.1467 192.115 31.824 192.457 32.432C192.798 33.0293 193.267 33.4987 193.865 33.84C194.462 34.1707 195.134 34.336 195.881 34.336ZM205.397 24.8H210.293C211.488 24.8 212.549 25.0347 213.477 25.504C214.405 25.9627 215.125 26.6187 215.637 27.472C216.149 28.3147 216.405 29.2907 216.405 30.4C216.405 31.5093 216.149 32.4907 215.637 33.344C215.125 34.1867 214.405 34.8427 213.477 35.312C212.549 35.7707 211.488 36 210.293 36H205.397V24.8ZM210.197 34.24C211.019 34.24 211.739 34.0853 212.357 33.776C212.987 33.456 213.467 33.008 213.797 32.432C214.139 31.8453 214.309 31.168 214.309 30.4C214.309 29.632 214.139 28.96 213.797 28.384C213.467 27.7973 212.987 27.3493 212.357 27.04C211.739 26.72 211.019 26.56 210.197 26.56H207.477V34.24H210.197ZM227.004 33.408H221.404L220.3 36H218.156L223.196 24.8H225.244L230.3 36H228.124L227.004 33.408ZM226.316 31.776L224.204 26.88L222.108 31.776H226.316ZM237.164 32.048V36H235.084V32.08L230.684 24.8H232.908L236.188 30.256L239.5 24.8H241.548L237.164 32.048Z" fill="white"/>
<defs>
<filter id="filter0_i_92_159" x="0" y="0" width="335" height="68" filterUnits="userSpaceOnUse" color-interpolation-filters="sRGB">
<feFlood flood-opacity="0" result="BackgroundImageFix"/>
<feBlend mode="normal" in="SourceGraphic" in2="BackgroundImageFix" result="shape"/>
<feColorMatrix in="SourceAlpha" type="matrix" values="0 0 0 0 0 0 0 0 0 0 0 0 0 0 0 0 0 0 127 0" result="hardAlpha"/>
<feOffset dy="4"/>
<feGaussianBlur stdDeviation="10.25"/>
<feComposite in2="hardAlpha" operator="arithmetic" k2="-1" k3="1"/>
<feColorMatrix type="matrix" values="0 0 0 0 1 0 0 0 0 0.856714 0 0 0 0 0.754167 0 0 0 0.6 0"/>
<feBlend mode="normal" in2="shape" result="effect1_innerShadow_92_159"/>
</filter>
<radialGradient id="paint0_radial_92_159" cx="0" cy="0" r="1" gradientUnits="userSpaceOnUse" gradientTransform="translate(177.938 13.44) rotate(96.8657) scale(83.1563 179.512)">
<stop stop-color="white"/>
<stop offset="1" stop-color="white" stop-opacity="0"/>
</radialGradient>
<radialGradient id="paint1_radial_92_159" cx="0" cy="0" r="1" gradientUnits="userSpaceOnUse" gradientTransform="translate(174.686 4.8451e-06) rotate(92.1353) scale(44.5109 117.797)">
<stop stop-color="white"/>
<stop offset="1" stop-color="white" stop-opacity="0"/>
</radialGradient>
</defs>
</svg>
