<svg width="66" height="58" viewBox="0 0 66 58" fill="none" xmlns="http://www.w3.org/2000/svg">
<g filter="url(#filter0_b_26_1704)">
<circle cx="27" cy="27" r="27" fill="black" fill-opacity="0.2"/>
<circle cx="27" cy="27" r="26" stroke="#F9561D" stroke-width="2"/>
</g>
<path fill-rule="evenodd" clip-rule="evenodd" d="M16.651 24.0938C16.0833 25.2079 16.0833 26.6664 16.0833 29.5833C16.0833 32.5003 16.0833 33.9587 16.651 35.0729C17.1503 36.0529 17.9471 36.8497 18.9271 37.349C20.0413 37.9167 21.4997 37.9167 24.4167 37.9167H28.5833C31.5003 37.9167 32.9587 37.9167 34.0729 37.349C35.0529 36.8497 35.8497 36.0529 36.349 35.0729C36.9167 33.9587 36.9167 32.5003 36.9167 29.5833C36.9167 26.6664 36.9167 25.2079 36.349 24.0938C35.8497 23.1138 35.0529 22.317 34.0729 21.8177C32.9587 21.25 31.5003 21.25 28.5833 21.25H24.4167C21.4997 21.25 20.0413 21.25 18.9271 21.8177C17.9471 22.317 17.1503 23.1138 16.651 24.0938ZM29.687 28.0203C29.9743 27.6984 29.9463 27.2046 29.6245 26.9173C29.3026 26.6299 28.8087 26.6578 28.5215 26.9797L25.384 30.4936L24.4786 29.4797C24.1912 29.1578 23.6974 29.1299 23.3755 29.4173C23.0537 29.7046 23.0257 30.1984 23.3131 30.5203L24.8011 32.187C24.9494 32.353 25.1613 32.4479 25.384 32.4479C25.6065 32.4479 25.8184 32.353 25.9667 32.187L29.687 28.0203Z" fill="white"/>
<path d="M35.3904 18.609C33.865 17.0835 31.4097 17.0835 26.4993 17.0835C21.5888 17.0835 19.1336 17.0835 17.6081 18.609C16.819 19.398 16.4381 20.4358 16.2542 21.9335C16.807 21.3182 17.4712 20.8057 18.217 20.4256C19.0311 20.0109 19.9027 19.8427 20.8679 19.7638C21.8003 19.6876 22.9476 19.6876 24.3505 19.6877H28.648C30.0509 19.6876 31.1982 19.6876 32.1306 19.7638C33.0958 19.8427 33.9675 20.0109 34.7815 20.4256C35.5273 20.8057 36.1916 21.3182 36.7443 21.9335C36.5604 20.4358 36.1795 19.398 35.3904 18.609Z" fill="white"/>
<circle cx="51.5" cy="43.5" r="13.5" fill="#F9561D"/>
<circle cx="51.5" cy="43.5" r="13.5" fill="url(#paint0_radial_26_1704)" fill-opacity="0.25"/>
<circle cx="51.5" cy="43.5" r="13.5" stroke="black" stroke-width="2"/>
<path d="M49.3029 48.096C48.6389 48.096 48.0469 47.928 47.5269 47.592C47.0149 47.248 46.6109 46.752 46.3149 46.104C46.0189 45.456 45.8709 44.688 45.8709 43.8C45.8709 42.912 46.0189 42.144 46.3149 41.496C46.6109 40.848 47.0149 40.356 47.5269 40.02C48.0469 39.676 48.6389 39.504 49.3029 39.504C49.9589 39.504 50.5429 39.676 51.0549 40.02C51.5749 40.356 51.9829 40.848 52.2789 41.496C52.5749 42.144 52.7229 42.912 52.7229 43.8C52.7229 44.688 52.5749 45.456 52.2789 46.104C51.9829 46.752 51.5749 47.248 51.0549 47.592C50.5429 47.928 49.9589 48.096 49.3029 48.096ZM49.3029 47.028C49.9749 47.028 50.5109 46.752 50.9109 46.2C51.3189 45.648 51.5229 44.848 51.5229 43.8C51.5229 42.752 51.3189 41.952 50.9109 41.4C50.5109 40.848 49.9749 40.572 49.3029 40.572C48.6229 40.572 48.0789 40.848 47.6709 41.4C47.2709 41.952 47.0709 42.752 47.0709 43.8C47.0709 44.848 47.2709 45.648 47.6709 46.2C48.0789 46.752 48.6229 47.028 49.3029 47.028ZM56.4437 39.6V48H55.2557V40.644H53.3597V39.6H56.4437Z" fill="white"/>
<defs>
<filter id="filter0_b_26_1704" x="-50" y="-50" width="154" height="154" filterUnits="userSpaceOnUse" color-interpolation-filters="sRGB">
<feFlood flood-opacity="0" result="BackgroundImageFix"/>
<feGaussianBlur in="BackgroundImageFix" stdDeviation="25"/>
<feComposite in2="SourceAlpha" operator="in" result="effect1_backgroundBlur_26_1704"/>
<feBlend mode="normal" in="SourceGraphic" in2="effect1_backgroundBlur_26_1704" result="shape"/>
</filter>
<radialGradient id="paint0_radial_26_1704" cx="0" cy="0" r="1" gradientUnits="userSpaceOnUse" gradientTransform="translate(52.2789 33.5621) rotate(91.1907) scale(35.6997 13.4902)">
<stop stop-color="white"/>
<stop offset="1" stop-color="white" stop-opacity="0"/>
</radialGradient>
</defs>
</svg>
