<svg width="66" height="58" viewBox="0 0 66 58" fill="none" xmlns="http://www.w3.org/2000/svg">
<g filter="url(#filter0_b_26_1705)">
<circle cx="27" cy="27" r="27" fill="black" fill-opacity="0.2"/>
<circle cx="27" cy="27" r="26" stroke="#F9561D" stroke-width="2"/>
</g>
<path fill-rule="evenodd" clip-rule="evenodd" d="M16.651 24.0938C16.0833 25.2079 16.0833 26.6664 16.0833 29.5833C16.0833 32.5003 16.0833 33.9587 16.651 35.0729C17.1503 36.0529 17.9471 36.8497 18.9271 37.349C20.0413 37.9167 21.4997 37.9167 24.4167 37.9167H28.5833C31.5003 37.9167 32.9587 37.9167 34.0729 37.349C35.0529 36.8497 35.8497 36.0529 36.349 35.0729C36.9167 33.9587 36.9167 32.5003 36.9167 29.5833C36.9167 26.6664 36.9167 25.2079 36.349 24.0938C35.8497 23.1138 35.0529 22.317 34.0729 21.8177C32.9587 21.25 31.5003 21.25 28.5833 21.25H24.4167C21.4997 21.25 20.0413 21.25 18.9271 21.8177C17.9471 22.317 17.1503 23.1138 16.651 24.0938ZM29.687 28.0203C29.9743 27.6984 29.9463 27.2046 29.6245 26.9173C29.3026 26.6299 28.8087 26.6578 28.5215 26.9797L25.384 30.4936L24.4786 29.4797C24.1912 29.1578 23.6974 29.1299 23.3755 29.4173C23.0537 29.7046 23.0257 30.1984 23.3131 30.5203L24.8011 32.187C24.9494 32.353 25.1613 32.4479 25.384 32.4479C25.6065 32.4479 25.8184 32.353 25.9667 32.187L29.687 28.0203Z" fill="white"/>
<path d="M35.3904 18.609C33.865 17.0835 31.4097 17.0835 26.4993 17.0835C21.5888 17.0835 19.1336 17.0835 17.6081 18.609C16.819 19.398 16.4381 20.4358 16.2542 21.9335C16.807 21.3182 17.4712 20.8057 18.217 20.4256C19.0311 20.0109 19.9027 19.8427 20.8679 19.7638C21.8003 19.6876 22.9476 19.6876 24.3505 19.6877H28.648C30.0509 19.6876 31.1982 19.6876 32.1306 19.7638C33.0958 19.8427 33.9675 20.0109 34.7815 20.4256C35.5273 20.8057 36.1916 21.3182 36.7443 21.9335C36.5604 20.4358 36.1795 19.398 35.3904 18.609Z" fill="white"/>
<circle cx="51.5" cy="43.5" r="13.5" fill="#F9561D"/>
<circle cx="51.5" cy="43.5" r="13.5" fill="url(#paint0_radial_26_1705)" fill-opacity="0.25"/>
<circle cx="51.5" cy="43.5" r="13.5" stroke="black" stroke-width="2"/>
<path d="M48.0783 48.096C47.4143 48.096 46.8223 47.928 46.3023 47.592C45.7903 47.248 45.3863 46.752 45.0903 46.104C44.7943 45.456 44.6463 44.688 44.6463 43.8C44.6463 42.912 44.7943 42.144 45.0903 41.496C45.3863 40.848 45.7903 40.356 46.3023 40.02C46.8223 39.676 47.4143 39.504 48.0783 39.504C48.7343 39.504 49.3183 39.676 49.8303 40.02C50.3503 40.356 50.7583 40.848 51.0543 41.496C51.3503 42.144 51.4983 42.912 51.4983 43.8C51.4983 44.688 51.3503 45.456 51.0543 46.104C50.7583 46.752 50.3503 47.248 49.8303 47.592C49.3183 47.928 48.7343 48.096 48.0783 48.096ZM48.0783 47.028C48.7503 47.028 49.2863 46.752 49.6863 46.2C50.0943 45.648 50.2983 44.848 50.2983 43.8C50.2983 42.752 50.0943 41.952 49.6863 41.4C49.2863 40.848 48.7503 40.572 48.0783 40.572C47.3983 40.572 46.8543 40.848 46.4463 41.4C46.0463 41.952 45.8463 42.752 45.8463 43.8C45.8463 44.848 46.0463 45.648 46.4463 46.2C46.8543 46.752 47.3983 47.028 48.0783 47.028ZM58.5191 46.956V48H52.4831V47.184L55.9031 43.884C56.3191 43.484 56.5991 43.14 56.7431 42.852C56.8871 42.556 56.9591 42.26 56.9591 41.964C56.9591 41.524 56.8031 41.184 56.4911 40.944C56.1871 40.696 55.7471 40.572 55.1711 40.572C54.2431 40.572 53.5271 40.876 53.0231 41.484L52.2071 40.776C52.5351 40.376 52.9631 40.064 53.4911 39.84C54.0271 39.616 54.6231 39.504 55.2791 39.504C56.1591 39.504 56.8591 39.716 57.3791 40.14C57.8991 40.556 58.1591 41.124 58.1591 41.844C58.1591 42.292 58.0631 42.716 57.8711 43.116C57.6791 43.516 57.3151 43.972 56.7791 44.484L54.2111 46.956H58.5191Z" fill="white"/>
<defs>
<filter id="filter0_b_26_1705" x="-50" y="-50" width="154" height="154" filterUnits="userSpaceOnUse" color-interpolation-filters="sRGB">
<feFlood flood-opacity="0" result="BackgroundImageFix"/>
<feGaussianBlur in="BackgroundImageFix" stdDeviation="25"/>
<feComposite in2="SourceAlpha" operator="in" result="effect1_backgroundBlur_26_1705"/>
<feBlend mode="normal" in="SourceGraphic" in2="effect1_backgroundBlur_26_1705" result="shape"/>
</filter>
<radialGradient id="paint0_radial_26_1705" cx="0" cy="0" r="1" gradientUnits="userSpaceOnUse" gradientTransform="translate(52.2789 33.5621) rotate(91.1907) scale(35.6997 13.4902)">
<stop stop-color="white"/>
<stop offset="1" stop-color="white" stop-opacity="0"/>
</radialGradient>
</defs>
</svg>
