<svg width="66" height="58" viewBox="0 0 66 58" fill="none" xmlns="http://www.w3.org/2000/svg">
<g filter="url(#filter0_b_26_1713)">
<circle cx="27" cy="27" r="27" fill="black" fill-opacity="0.2"/>
<circle cx="27" cy="27" r="26" stroke="#F9561D" stroke-width="2"/>
</g>
<path fill-rule="evenodd" clip-rule="evenodd" d="M16.651 24.0938C16.0833 25.2079 16.0833 26.6664 16.0833 29.5833C16.0833 32.5003 16.0833 33.9587 16.651 35.0729C17.1503 36.0529 17.9471 36.8497 18.9271 37.349C20.0413 37.9167 21.4997 37.9167 24.4167 37.9167H28.5833C31.5003 37.9167 32.9587 37.9167 34.0729 37.349C35.0529 36.8497 35.8497 36.0529 36.349 35.0729C36.9167 33.9587 36.9167 32.5003 36.9167 29.5833C36.9167 26.6664 36.9167 25.2079 36.349 24.0938C35.8497 23.1138 35.0529 22.317 34.0729 21.8177C32.9587 21.25 31.5003 21.25 28.5833 21.25H24.4167C21.4997 21.25 20.0413 21.25 18.9271 21.8177C17.9471 22.317 17.1503 23.1138 16.651 24.0938ZM29.687 28.0203C29.9743 27.6984 29.9463 27.2046 29.6245 26.9173C29.3026 26.6299 28.8087 26.6578 28.5215 26.9797L25.384 30.4936L24.4786 29.4797C24.1912 29.1578 23.6974 29.1299 23.3755 29.4173C23.0537 29.7046 23.0257 30.1984 23.3131 30.5203L24.8011 32.187C24.9494 32.353 25.1613 32.4479 25.384 32.4479C25.6065 32.4479 25.8184 32.353 25.9667 32.187L29.687 28.0203Z" fill="white"/>
<path d="M35.3904 18.609C33.865 17.0835 31.4097 17.0835 26.4993 17.0835C21.5888 17.0835 19.1336 17.0835 17.6081 18.609C16.819 19.398 16.4381 20.4358 16.2542 21.9335C16.807 21.3182 17.4712 20.8057 18.217 20.4256C19.0311 20.0109 19.9027 19.8427 20.8679 19.7638C21.8003 19.6876 22.9476 19.6876 24.3505 19.6877H28.648C30.0509 19.6876 31.1982 19.6876 32.1306 19.7638C33.0958 19.8427 33.9675 20.0109 34.7815 20.4256C35.5273 20.8057 36.1916 21.3182 36.7443 21.9335C36.5604 20.4358 36.1795 19.398 35.3904 18.609Z" fill="white"/>
<circle cx="51.5" cy="43.5" r="13.5" fill="#F9561D"/>
<circle cx="51.5" cy="43.5" r="13.5" fill="url(#paint0_radial_26_1713)" fill-opacity="0.25"/>
<circle cx="51.5" cy="43.5" r="13.5" stroke="black" stroke-width="2"/>
<path d="M48.131 48.096C47.467 48.096 46.875 47.928 46.355 47.592C45.843 47.248 45.439 46.752 45.143 46.104C44.847 45.456 44.699 44.688 44.699 43.8C44.699 42.912 44.847 42.144 45.143 41.496C45.439 40.848 45.843 40.356 46.355 40.02C46.875 39.676 47.467 39.504 48.131 39.504C48.787 39.504 49.371 39.676 49.883 40.02C50.403 40.356 50.811 40.848 51.107 41.496C51.403 42.144 51.551 42.912 51.551 43.8C51.551 44.688 51.403 45.456 51.107 46.104C50.811 46.752 50.403 47.248 49.883 47.592C49.371 47.928 48.787 48.096 48.131 48.096ZM48.131 47.028C48.803 47.028 49.339 46.752 49.739 46.2C50.147 45.648 50.351 44.848 50.351 43.8C50.351 42.752 50.147 41.952 49.739 41.4C49.339 40.848 48.803 40.572 48.131 40.572C47.451 40.572 46.907 40.848 46.499 41.4C46.099 41.952 45.899 42.752 45.899 43.8C45.899 44.848 46.099 45.648 46.499 46.2C46.907 46.752 47.451 47.028 48.131 47.028ZM55.8018 43.128C56.6258 43.208 57.2538 43.464 57.6858 43.896C58.1178 44.32 58.3338 44.864 58.3338 45.528C58.3338 46.008 58.2138 46.444 57.9738 46.836C57.7338 47.22 57.3738 47.528 56.8938 47.76C56.4218 47.984 55.8418 48.096 55.1538 48.096C54.5538 48.096 53.9778 48.008 53.4258 47.832C52.8738 47.648 52.4218 47.396 52.0698 47.076L52.6218 46.128C52.9098 46.4 53.2778 46.62 53.7258 46.788C54.1738 46.948 54.6498 47.028 55.1538 47.028C55.7778 47.028 56.2618 46.896 56.6058 46.632C56.9578 46.368 57.1338 46.004 57.1338 45.54C57.1338 45.076 56.9618 44.716 56.6178 44.46C56.2738 44.204 55.7538 44.076 55.0578 44.076H54.3858V43.236L56.4978 40.644H52.4538V39.6H57.9978V40.416L55.8018 43.128Z" fill="white"/>
<defs>
<filter id="filter0_b_26_1713" x="-50" y="-50" width="154" height="154" filterUnits="userSpaceOnUse" color-interpolation-filters="sRGB">
<feFlood flood-opacity="0" result="BackgroundImageFix"/>
<feGaussianBlur in="BackgroundImageFix" stdDeviation="25"/>
<feComposite in2="SourceAlpha" operator="in" result="effect1_backgroundBlur_26_1713"/>
<feBlend mode="normal" in="SourceGraphic" in2="effect1_backgroundBlur_26_1713" result="shape"/>
</filter>
<radialGradient id="paint0_radial_26_1713" cx="0" cy="0" r="1" gradientUnits="userSpaceOnUse" gradientTransform="translate(52.2789 33.5621) rotate(91.1907) scale(35.6997 13.4902)">
<stop stop-color="white"/>
<stop offset="1" stop-color="white" stop-opacity="0"/>
</radialGradient>
</defs>
</svg>
