<svg width="20" height="20" viewBox="0 0 20 20" fill="none" xmlns="http://www.w3.org/2000/svg">
<g clip-path="url(#clip0_1_253)">
<path fill-rule="evenodd" clip-rule="evenodd" d="M5.14661 2.01726C5.66887 1.73906 5.86671 1.09015 5.5885 0.567896C5.31029 0.0456437 4.66139 -0.152192 4.13913 0.126018C2.66484 0.911387 1.3493 1.96383 0.259467 3.22976C-0.126599 3.6782 -0.0760307 4.3547 0.372414 4.74076C0.820858 5.12683 1.49736 5.07626 1.88343 4.62781C2.80009 3.56304 3.9066 2.67784 5.14661 2.01726ZM10 20.0001C14.7339 20.0001 18.5714 16.1627 18.5714 11.4288C18.5714 6.69491 14.7339 2.85736 10 2.85736C5.26614 2.85736 1.42859 6.69491 1.42859 11.4288C1.42859 16.1627 5.26614 20.0001 10 20.0001ZM14.4116 0.567896C14.6897 0.0456437 15.3387 -0.152192 15.8609 0.126018C17.3351 0.911387 18.6507 1.96383 19.7406 3.22976C20.1266 3.6782 20.076 4.3547 19.6276 4.74076C19.1791 5.12683 18.5027 5.07626 18.1166 4.62781C17.2 3.56304 16.0934 2.67784 14.8534 2.01726C14.3311 1.73906 14.1333 1.09015 14.4116 0.567896ZM10.8929 7.14286C10.8929 6.64974 10.4931 6.25 10 6.25C9.50689 6.25 9.10714 6.64974 9.10714 7.14286V11.4286C9.10714 11.9217 9.50689 12.3214 10 12.3214H13.5714C14.0645 12.3214 14.4643 11.9217 14.4643 11.4286C14.4643 10.9355 14.0645 10.5357 13.5714 10.5357H10.8929V7.14286Z" fill="white"/>
</g>
<defs>
<clipPath id="clip0_1_253">
<rect width="20" height="20" fill="white"/>
</clipPath>
</defs>
</svg>
