<svg width="337" height="88" viewBox="0 0 337 88" fill="none" xmlns="http://www.w3.org/2000/svg">
<path d="M1 10C1 5.02944 5.02944 1 10 1H327C331.971 1 336 5.02944 336 10V78C336 82.9706 331.971 87 327 87H10C5.02943 87 1 82.9706 1 78V10Z" fill="#F9561D"/>
<path d="M1 10C1 5.02944 5.02944 1 10 1H327C331.971 1 336 5.02944 336 10V78C336 82.9706 331.971 87 327 87H10C5.02943 87 1 82.9706 1 78V10Z" fill="url(#paint0_radial_1_247)" fill-opacity="0.2"/>
<path d="M1 10C1 5.02944 5.02944 1 10 1H327C331.971 1 336 5.02944 336 10V78C336 82.9706 331.971 87 327 87H10C5.02943 87 1 82.9706 1 78V10Z" stroke="#F9561D" stroke-width="2"/>
<path d="M1 10C1 5.02944 5.02944 1 10 1H327C331.971 1 336 5.02944 336 10V78C336 82.9706 331.971 87 327 87H10C5.02943 87 1 82.9706 1 78V10Z" stroke="url(#paint1_radial_1_247)" stroke-opacity="0.5" stroke-width="2"/>
<path d="M100.569 49.16C99.7054 49.16 98.8681 49.0373 98.0574 48.792C97.2574 48.5467 96.6228 48.2213 96.1534 47.816L96.8734 46.2C97.3321 46.5627 97.8921 46.8613 98.5534 47.096C99.2254 47.32 99.8974 47.432 100.569 47.432C101.401 47.432 102.02 47.2987 102.425 47.032C102.841 46.7653 103.049 46.4133 103.049 45.976C103.049 45.656 102.932 45.3947 102.697 45.192C102.473 44.9787 102.185 44.8133 101.833 44.696C101.481 44.5787 101.001 44.4453 100.393 44.296C99.5401 44.0933 98.8468 43.8907 98.3134 43.688C97.7908 43.4853 97.3374 43.1707 96.9534 42.744C96.5801 42.3067 96.3934 41.72 96.3934 40.984C96.3934 40.3653 96.5588 39.8053 96.8894 39.304C97.2308 38.792 97.7374 38.3867 98.4094 38.088C99.0921 37.7893 99.9241 37.64 100.905 37.64C101.588 37.64 102.26 37.7253 102.921 37.896C103.583 38.0667 104.153 38.312 104.633 38.632L103.977 40.248C103.487 39.96 102.975 39.7413 102.441 39.592C101.908 39.4427 101.391 39.368 100.889 39.368C100.068 39.368 99.4548 39.5067 99.0494 39.784C98.6548 40.0613 98.4574 40.4293 98.4574 40.888C98.4574 41.208 98.5694 41.4693 98.7934 41.672C99.0281 41.8747 99.3214 42.0347 99.6734 42.152C100.025 42.2693 100.505 42.4027 101.113 42.552C101.945 42.744 102.628 42.9467 103.161 43.16C103.695 43.3627 104.148 43.6773 104.521 44.104C104.905 44.5307 105.097 45.1067 105.097 45.832C105.097 46.4507 104.927 47.0107 104.585 47.512C104.255 48.0133 103.748 48.4133 103.065 48.712C102.383 49.0107 101.551 49.16 100.569 49.16ZM108.44 37.8H110.52V49H108.44V37.8ZM122.477 43.272H124.445V47.736C123.869 48.1947 123.197 48.5467 122.429 48.792C121.661 49.0373 120.872 49.16 120.061 49.16C118.92 49.16 117.891 48.9147 116.973 48.424C116.056 47.9227 115.336 47.2347 114.813 46.36C114.291 45.4853 114.029 44.4987 114.029 43.4C114.029 42.3013 114.291 41.3147 114.813 40.44C115.336 39.5653 116.056 38.8827 116.973 38.392C117.901 37.8907 118.941 37.64 120.093 37.64C121.032 37.64 121.885 37.7947 122.653 38.104C123.421 38.4133 124.067 38.8667 124.589 39.464L123.277 40.744C122.424 39.8907 121.395 39.464 120.189 39.464C119.4 39.464 118.696 39.6293 118.077 39.96C117.469 40.2907 116.989 40.7547 116.637 41.352C116.296 41.9493 116.125 42.632 116.125 43.4C116.125 44.1467 116.296 44.8187 116.637 45.416C116.989 46.0133 117.469 46.4827 118.077 46.824C118.696 47.1653 119.395 47.336 120.173 47.336C121.048 47.336 121.816 47.144 122.477 46.76V43.272ZM138.421 37.8V49H136.709L130.533 41.416V49H128.469V37.8H130.181L136.357 45.384V37.8H138.421ZM153.22 49.16C151.673 49.16 150.468 48.728 149.604 47.864C148.74 46.9893 148.308 45.7413 148.308 44.12V37.8H150.388V44.04C150.388 46.2373 151.337 47.336 153.236 47.336C155.124 47.336 156.068 46.2373 156.068 44.04V37.8H158.116V44.12C158.116 45.7413 157.684 46.9893 156.82 47.864C155.966 48.728 154.766 49.16 153.22 49.16ZM166.917 37.8C167.887 37.8 168.73 37.96 169.445 38.28C170.17 38.6 170.725 39.0587 171.109 39.656C171.493 40.2533 171.685 40.9627 171.685 41.784C171.685 42.5947 171.493 43.304 171.109 43.912C170.725 44.5093 170.17 44.968 169.445 45.288C168.73 45.608 167.887 45.768 166.917 45.768H164.389V49H162.309V37.8H166.917ZM166.821 44.008C167.727 44.008 168.415 43.816 168.885 43.432C169.354 43.048 169.589 42.4987 169.589 41.784C169.589 41.0693 169.354 40.52 168.885 40.136C168.415 39.752 167.727 39.56 166.821 39.56H164.389V44.008H166.821ZM183.172 39.56H179.46V37.8H188.964V39.56H185.252V49H183.172V39.56ZM196.881 49.16C195.739 49.16 194.71 48.9147 193.793 48.424C192.875 47.9227 192.155 47.2347 191.633 46.36C191.11 45.4747 190.849 44.488 190.849 43.4C190.849 42.312 191.11 41.3307 191.633 40.456C192.155 39.5707 192.875 38.8827 193.793 38.392C194.71 37.8907 195.739 37.64 196.881 37.64C198.022 37.64 199.051 37.8907 199.969 38.392C200.886 38.8827 201.606 39.5653 202.129 40.44C202.651 41.3147 202.913 42.3013 202.913 43.4C202.913 44.4987 202.651 45.4853 202.129 46.36C201.606 47.2347 200.886 47.9227 199.969 48.424C199.051 48.9147 198.022 49.16 196.881 49.16ZM196.881 47.336C197.627 47.336 198.299 47.1707 198.897 46.84C199.494 46.4987 199.963 46.0293 200.305 45.432C200.646 44.824 200.817 44.1467 200.817 43.4C200.817 42.6533 200.646 41.9813 200.305 41.384C199.963 40.776 199.494 40.3067 198.897 39.976C198.299 39.6347 197.627 39.464 196.881 39.464C196.134 39.464 195.462 39.6347 194.865 39.976C194.267 40.3067 193.798 40.776 193.457 41.384C193.115 41.9813 192.945 42.6533 192.945 43.4C192.945 44.1467 193.115 44.824 193.457 45.432C193.798 46.0293 194.267 46.4987 194.865 46.84C195.462 47.1707 196.134 47.336 196.881 47.336ZM206.397 37.8H211.293C212.488 37.8 213.549 38.0347 214.477 38.504C215.405 38.9627 216.125 39.6187 216.637 40.472C217.149 41.3147 217.405 42.2907 217.405 43.4C217.405 44.5093 217.149 45.4907 216.637 46.344C216.125 47.1867 215.405 47.8427 214.477 48.312C213.549 48.7707 212.488 49 211.293 49H206.397V37.8ZM211.197 47.24C212.019 47.24 212.739 47.0853 213.357 46.776C213.987 46.456 214.467 46.008 214.797 45.432C215.139 44.8453 215.309 44.168 215.309 43.4C215.309 42.632 215.139 41.96 214.797 41.384C214.467 40.7973 213.987 40.3493 213.357 40.04C212.739 39.72 212.019 39.56 211.197 39.56H208.477V47.24H211.197ZM228.004 46.408H222.404L221.3 49H219.156L224.196 37.8H226.244L231.3 49H229.124L228.004 46.408ZM227.316 44.776L225.204 39.88L223.108 44.776H227.316ZM238.164 45.048V49H236.084V45.08L231.684 37.8H233.908L237.188 43.256L240.5 37.8H242.548L238.164 45.048Z" fill="white"/>
<defs>
<radialGradient id="paint0_radial_1_247" cx="0" cy="0" r="1" gradientUnits="userSpaceOnUse" gradientTransform="translate(179 18.48) rotate(95.0342) scale(113.96 181.186)">
<stop stop-color="white"/>
<stop offset="1" stop-color="white" stop-opacity="0"/>
</radialGradient>
<radialGradient id="paint1_radial_1_247" cx="0" cy="0" r="1" gradientUnits="userSpaceOnUse" gradientTransform="translate(175.729 6.66202e-06) rotate(91.5625) scale(61.1827 118.538)">
<stop stop-color="white"/>
<stop offset="1" stop-color="white" stop-opacity="0"/>
</radialGradient>
</defs>
</svg>
