<svg width="12" height="12" viewBox="0 0 12 12" fill="none" xmlns="http://www.w3.org/2000/svg">
<g clip-path="url(#clip0_26_1724)">
<path d="M9.67688 2.99895V2.99933C9.67688 3.37208 9.37463 3.67395 9.00225 3.67395C8.62988 3.67395 8.32763 3.3717 8.32763 2.99933C8.32763 2.62658 8.62988 2.3247 9.00225 2.3247C9.37463 2.32508 9.6765 2.62658 9.67688 2.99895ZM6 7.87508C4.96463 7.87508 4.12538 7.03583 4.12538 6.00045C4.12538 4.96508 4.96463 4.12583 6 4.12583C7.03538 4.12583 7.87463 4.96508 7.87463 6.00045C7.87463 7.03545 7.03575 7.8747 6.00075 7.8747H6.00038L6 7.87508ZM6 3.11295C4.40513 3.11295 3.1125 4.40595 3.1125 6.00045C3.1125 7.59495 4.4055 8.88795 6 8.88795C7.59488 8.88795 8.8875 7.59495 8.8875 6.00045C8.8875 6.00045 8.8875 6.00045 8.8875 6.00008C8.8875 4.40558 7.59488 3.11258 6 3.11258C6 3.11258 6 3.11258 5.99963 3.11258L6 3.11295ZM6 1.38945C7.50113 1.38945 7.68 1.39695 8.27288 1.42283C8.649 1.42733 9.00675 1.49858 9.33788 1.62458L9.3165 1.61745C9.80925 1.80945 10.1918 2.19195 10.3796 2.67195L10.3841 2.6847C10.5026 2.99445 10.5731 3.35258 10.5776 3.72645V3.72833C10.6043 4.32158 10.6103 4.4997 10.6103 6.0012C10.6103 7.5027 10.6031 7.6812 10.5758 8.27408C10.5686 8.65058 10.497 9.00833 10.3714 9.33945L10.3785 9.3177C10.2818 9.5712 10.1385 9.7872 9.95738 9.96495L9.957 9.96533C9.77963 10.1468 9.56363 10.2901 9.3225 10.3812L9.3105 10.3853C8.99963 10.5038 8.64038 10.5743 8.265 10.5788H8.26313C7.66613 10.6055 7.49025 10.6115 5.98613 10.6115C4.48125 10.6115 4.30575 10.6043 3.70913 10.577C3.33113 10.5698 2.97188 10.4982 2.63925 10.3726L2.66138 10.3797C2.40788 10.2845 2.19188 10.1408 2.01563 9.95895L2.01525 9.95858C1.83188 9.78233 1.68788 9.56595 1.5975 9.3237L1.59375 9.31208C1.47563 9.00158 1.404 8.6427 1.39688 8.2677V8.2647C1.37588 7.67408 1.36838 7.49183 1.36838 5.99483C1.36838 4.49708 1.37588 4.31445 1.39688 3.7167C1.404 3.33908 1.47525 2.9802 1.60088 2.64795L1.59375 2.67008C1.68638 2.41545 1.83075 2.1987 2.01488 2.02358L2.01563 2.02283C2.19113 1.83833 2.4075 1.6947 2.65013 1.60583L2.66175 1.60208C2.97038 1.48283 3.327 1.4112 3.69975 1.40483H3.70238C4.29975 1.38383 4.47563 1.3767 5.97938 1.3767L6 1.38945ZM6 0.376953C4.47225 0.376953 4.28175 0.384078 3.68175 0.410703C3.18863 0.421203 2.721 0.516453 2.28825 0.681828L2.31675 0.672453C1.92675 0.821328 1.5945 1.0422 1.32075 1.32045L1.32038 1.32083C1.041 1.59458 0.820503 1.9272 0.678003 2.29845L0.671628 2.3172C0.515628 2.72145 0.420378 3.18945 0.410253 3.6777V3.6822C0.382128 4.2822 0.376503 4.4727 0.376503 6.00045C0.376503 7.5282 0.383628 7.7187 0.410253 8.3187C0.420753 8.81183 0.516003 9.27945 0.681378 9.7122L0.672003 9.6837C0.970503 10.4416 1.55888 11.03 2.29725 11.3217L2.31675 11.3285C2.721 11.4841 3.189 11.5793 3.67725 11.5898H3.68175C4.28175 11.618 4.47225 11.6236 6 11.6236C7.52775 11.6236 7.71825 11.6165 8.31825 11.5898C8.81138 11.579 9.279 11.4841 9.71175 11.3187L9.68325 11.3285C10.4411 11.03 11.0295 10.4416 11.3213 9.7032L11.328 9.6837C11.484 9.27945 11.5789 8.81145 11.5894 8.3232V8.3187C11.6175 7.7187 11.6231 7.5282 11.6231 6.00045C11.6231 4.4727 11.616 4.2822 11.5894 3.6822C11.5785 3.18908 11.4836 2.72145 11.3183 2.2887L11.328 2.3172C11.1788 1.9272 10.9583 1.59495 10.6796 1.3212L10.6793 1.32083C10.4055 1.04145 10.0729 0.820953 9.70163 0.678453L9.68288 0.672078C9.27863 0.516078 8.81063 0.420828 8.32238 0.410703H8.31788C7.71788 0.382578 7.52738 0.376953 5.99963 0.376953H6Z" fill="white"/>
</g>
<defs>
<clipPath id="clip0_26_1724">
<rect width="12" height="12" fill="white"/>
</clipPath>
</defs>
</svg>
