<svg width="55" height="55" viewBox="0 0 55 55" fill="none" xmlns="http://www.w3.org/2000/svg">
<circle cx="27.5" cy="27.5" r="27.5" fill="#F9561D"/>
<circle cx="27.5" cy="27.5" r="27.5" fill="url(#paint0_radial_17_1404)" fill-opacity="0.25"/>
<circle cx="27.5" cy="27.5" r="27" stroke="white" stroke-opacity="0.2"/>
<circle cx="27.5" cy="27.5" r="27" stroke="url(#paint1_radial_17_1404)" stroke-opacity="0.53"/>
<path fill-rule="evenodd" clip-rule="evenodd" d="M24.7899 16.2671C24.4652 16.5438 24.3028 16.6822 24.1294 16.7984C23.7319 17.0648 23.2856 17.2497 22.8161 17.3424C22.6113 17.3828 22.3987 17.3998 21.9734 17.4337C20.9049 17.519 20.3707 17.5616 19.9249 17.7191C18.894 18.0832 18.0831 18.8941 17.719 19.925C17.5615 20.3708 17.5189 20.905 17.4336 21.9735C17.3997 22.3988 17.3827 22.6114 17.3423 22.8162C17.2496 23.2856 17.0647 23.732 16.7983 24.1295C16.6821 24.3029 16.5437 24.4652 16.267 24.79C15.5718 25.6058 15.2241 26.0137 15.0203 26.4402C14.5488 27.4268 14.5488 28.5734 15.0203 29.56C15.2241 29.9865 15.5718 30.3944 16.267 31.2102C16.5437 31.5349 16.6821 31.6973 16.7983 31.8706C17.0647 32.2681 17.2496 32.7145 17.3423 33.184C17.3827 33.3888 17.3997 33.6014 17.4336 34.0266C17.5189 35.0951 17.5615 35.6294 17.719 36.0751C18.0831 37.1061 18.894 37.917 19.9249 38.2811C20.3707 38.4385 20.9049 38.4811 21.9734 38.5665C22.3987 38.6003 22.6113 38.6174 22.8161 38.6578C23.2856 38.7505 23.7319 38.9354 24.1294 39.2018C24.3028 39.3179 24.4652 39.4563 24.7899 39.733C25.6057 40.4283 26.0136 40.7759 26.4401 40.9798C27.4267 41.4513 28.5733 41.4513 29.5599 40.9798C29.9864 40.7759 30.3943 40.4283 31.2101 39.733C31.5348 39.4563 31.6972 39.3179 31.8705 39.2018C32.268 38.9354 32.7144 38.7505 33.1839 38.6578C33.3887 38.6174 33.6013 38.6003 34.0265 38.5665C35.0951 38.4811 35.6293 38.4385 36.0751 38.2811C37.106 37.917 37.9169 37.1061 38.2811 36.0751C38.4384 35.6294 38.4811 35.0951 38.5664 34.0266C38.6003 33.6014 38.6173 33.3888 38.6577 33.184C38.7504 32.7145 38.9353 32.2681 39.2017 31.8706C39.3179 31.6973 39.4563 31.5349 39.7329 31.2102C40.4283 30.3944 40.7759 29.9865 40.9797 29.56C41.4512 28.5734 41.4512 27.4268 40.9797 26.4402C40.7759 26.0137 40.4283 25.6058 39.7329 24.79C39.4563 24.4652 39.3179 24.3029 39.2017 24.1295C38.9353 23.732 38.7504 23.2856 38.6577 22.8162C38.6173 22.6114 38.6003 22.3988 38.5664 21.9735C38.4811 20.905 38.4384 20.3708 38.2811 19.925C37.9169 18.8941 37.106 18.0832 36.0751 17.7191C35.6293 17.5616 35.0951 17.519 34.0265 17.4337C33.6013 17.3998 33.3887 17.3828 33.1839 17.3424C32.7144 17.2497 32.268 17.0648 31.8705 16.7984C31.6972 16.6822 31.5348 16.5438 31.2101 16.2671C30.3943 15.5719 29.9864 15.2242 29.5599 15.0204C28.5733 14.5489 27.4267 14.5489 26.4401 15.0204C26.0136 15.2242 25.6057 15.5719 24.7899 16.2671ZM33.1079 22.8929C33.5316 23.3166 33.5316 24.0037 33.1079 24.4275L24.4267 33.1086C24.0029 33.5325 23.3158 33.5325 22.8921 33.1086C22.4683 32.6849 22.4683 31.9978 22.8921 31.5741L31.5732 22.8929C31.9971 22.4691 32.6841 22.4691 33.1079 22.8929ZM33.064 31.618C33.064 32.417 32.4163 33.0648 31.6172 33.0648C30.818 33.0648 30.1703 32.417 30.1703 31.618C30.1703 30.8189 30.818 30.171 31.6172 30.171C32.4163 30.171 33.064 30.8189 33.064 31.618ZM24.3828 25.8305C25.1819 25.8305 25.8297 25.1827 25.8297 24.3836C25.8297 23.5845 25.1819 22.9368 24.3828 22.9368C23.5837 22.9368 22.936 23.5845 22.936 24.3836C22.936 25.1827 23.5837 25.8305 24.3828 25.8305Z" fill="white"/>
<defs>
<radialGradient id="paint0_radial_17_1404" cx="0" cy="0" r="1" gradientUnits="userSpaceOnUse" gradientTransform="translate(29.2136 5.63656) rotate(91.1907) scale(78.5394 29.6785)">
<stop stop-color="white"/>
<stop offset="1" stop-color="white" stop-opacity="0"/>
</radialGradient>
<radialGradient id="paint1_radial_17_1404" cx="0" cy="0" r="1" gradientUnits="userSpaceOnUse" gradientTransform="translate(28.6799 -7.14617) rotate(90.3688) scale(42.3056 19.3528)">
<stop stop-color="white"/>
<stop offset="1" stop-color="white" stop-opacity="0"/>
</radialGradient>
</defs>
</svg>
